<svg width="22" height="22" fill="none" xmlns="http://www.w3.org/2000/svg"><circle cx="11" cy="11" r="10.25" stroke="#3369F3" stroke-width="1.5"/><path d="M17 14.833h-4.125m2.063-2.166V17M8.53 11.944a3.965 3.965 0 0 0 3.656.476M10.47 17H7.1c-.385 0-.577 0-.725-.079a.706.706 0 0 1-.3-.315C6 16.45 6 16.249 6 15.844v-1.733c0-.575.217-1.126.604-1.532a2.014 2.014 0 0 1 1.458-.635h.344m5.156-5.055c0 .766-.29 1.5-.805 2.043a2.685 2.685 0 0 1-1.944.846c-.73 0-1.43-.305-1.945-.846a2.965 2.965 0 0 1-.806-2.043c0-.766.29-1.501.806-2.043A2.685 2.685 0 0 1 10.812 4c.73 0 1.43.304 1.945.846.516.542.806 1.277.806 2.043z" stroke="#3369F3" stroke-linecap="round" stroke-linejoin="round"/></svg>