<svg width="22" height="22" fill="none" xmlns="http://www.w3.org/2000/svg"><path d="m13.563 13.389 1.718 1.805m0 0L17 17m-1.719-1.806L17 13.39m-1.719 1.805L13.562 17m-2.75-4.333a3.936 3.936 0 0 1-1.7-.385c-.36-.17-.539-.256-.638-.286a1.128 1.128 0 0 0-.271-.05 1.959 1.959 0 0 0-.336.01 1.605 1.605 0 0 0-.172.023 2.032 2.032 0 0 0-1.09.6 2.205 2.205 0 0 0-.572 1.146c-.033.191-.033.42-.033.88v1.24c0 .404 0 .606.075.76a.706.706 0 0 0 .3.316c.147.079.34.079.725.079h3.713m2.75-10.111c0 .766-.29 1.5-.806 2.043a2.685 2.685 0 0 1-1.944.846c-.73 0-1.43-.305-1.945-.846a2.965 2.965 0 0 1-.806-2.043c0-.766.29-1.501.806-2.043A2.685 2.685 0 0 1 10.812 4c.73 0 1.43.304 1.945.846.516.542.806 1.277.806 2.043z" stroke="#3369F3" stroke-linecap="round" stroke-linejoin="round"/><circle cx="11" cy="11" r="10.25" stroke="#3369F3" stroke-width="1.5"/></svg>