<svg width="22" height="22" viewBox="0 0 22 22" fill="none" xmlns="http://www.w3.org/2000/svg">
<g clip-path="url(#clip0_16886_42)">
<path d="M11 5C7.692 5 5 7.55 5 10.684C5 11.78 5.33 12.841 5.954 13.759C5.835 15.135 5.519 16.157 5.059 16.641C5.02935 16.6732 5.00999 16.7136 5.0034 16.7569C4.99681 16.8001 5.00328 16.8444 5.022 16.884C5.04 16.923 5.07 16.955 5.107 16.976C5.14378 16.9965 5.18634 17.0043 5.228 16.998C5.309 16.986 7.191 16.701 8.551 15.874C9.32543 16.2031 10.1585 16.3719 11 16.37C14.308 16.37 17 13.82 17 10.685C17 7.55 14.308 5 11 5Z" fill="#FF0000"/>
<path d="M11 21.25C16.6609 21.25 21.25 16.6609 21.25 11C21.25 5.33908 16.6609 0.75 11 0.75C5.33908 0.75 0.75 5.33908 0.75 11C0.75 16.6609 5.33908 21.25 11 21.25Z" stroke="#FF0000" stroke-width="1.5"/>
</g>
<defs>
<clipPath id="clip0_16886_42">
<rect width="22" height="22" fill="white"/>
</clipPath>
</defs>
</svg>
