<svg width="22" height="22" fill="none" xmlns="http://www.w3.org/2000/svg"><circle cx="11" cy="11" r="10.25" stroke="#3369F3" stroke-width="1.5"/><path d="M12.914 9.274a2.056 2.056 0 0 1-2.036 2.036c-1.121.013-2.022-.934-2.035-2.036-.008-.707-1.106-.708-1.098 0a3.173 3.173 0 0 0 3.133 3.134c1.72.02 3.114-1.444 3.134-3.134.008-.708-1.09-.707-1.098 0z" fill="#4A5699"/><path d="M8.843 9.133a2.056 2.056 0 0 1 2.035-2.035c1.122-.013 2.023.934 2.036 2.035.008.708 1.106.709 1.098 0A3.173 3.173 0 0 0 10.878 6c-1.72-.02-3.113 1.444-3.133 3.133-.008.709 1.09.708 1.098 0z" fill="#C45FA0"/><path d="M8.098 15.65c.006-.767.299-1.484.83-2.033a2.902 2.902 0 0 1 4.974 2.032c.007.708 1.104.708 1.098 0a4.048 4.048 0 0 0-4-4c-2.192-.019-3.981 1.837-4 4-.006.708 1.092.708 1.098 0z" fill="#E5594F"/></svg>